<svg width="303" height="343" viewBox="0 0 303 343" fill="none" xmlns="http://www.w3.org/2000/svg">
<g filter="url(#filter0_i_699_900)">
<path fill-rule="evenodd" clip-rule="evenodd" d="M143.749 0.871251C138.818 1.6347 130.909 3.38062 126.174 4.74951L117.567 7.23697L121.38 15.8101C123.475 20.5253 125.191 24.8495 125.191 25.4189C125.191 25.9884 121.754 22.6374 117.553 17.9722L109.915 9.48977L98.5546 18.7341C71.4993 40.7489 59.5431 66.3886 63.8625 93.1296C66.3085 108.273 70.2063 118.377 84.7029 147.148C91.2182 160.08 97.6847 174.465 99.0736 179.113C102.012 188.956 102.371 202.93 99.8098 207.828C98.0748 211.147 98.1409 211.139 102.042 207.572C109.212 201.018 113.311 189.302 113.347 175.263C113.374 164.765 112.43 160.056 107.486 146.053C97.0508 116.488 96.2564 97.036 104.708 77.9921C108.936 68.4693 119.526 57.8373 129.685 52.9187C137.84 48.9701 140.095 48.6165 157.437 48.5821C167.819 48.5602 178.637 49.0577 181.476 49.6866C186.13 50.7191 186.791 50.4109 188.192 46.5577C191.167 38.3866 193.665 34.5897 201.902 25.7084L210.189 16.7754L202.455 12.0414C186.983 2.57336 162.652 -2.05582 143.749 0.871251ZM141.789 59.6333C127.538 64.1796 115.906 74.677 111.154 87.2833C106.228 100.35 106.25 120.704 111.203 132.632C113.273 137.616 115.754 138.308 115.754 133.899C115.754 128.442 123.894 108.175 129.429 99.8473C137.947 87.0346 150.523 77.4727 165.993 72.044C175.047 68.8667 175.966 70.1433 167.657 74.3579C149.719 83.4598 131.158 108.813 122.727 135.725C120.03 144.335 120.03 144.806 122.745 147.791C124.3 149.498 127.958 151.679 130.875 152.636C136.091 154.349 136.339 154.215 146.021 144.482C157.459 132.985 170.706 125.485 185.68 122.031C197.368 119.336 220.893 118.838 232.547 121.039C236.657 121.815 240.011 122.012 240 121.479C239.991 120.944 236.535 117.116 232.322 112.971C225.299 106.061 224.203 105.52 219.156 106.462C214.491 107.332 212.309 106.601 204.844 101.671C198.178 97.2707 194.977 96.0629 191.68 96.7075C189.056 97.2206 185.205 96.4634 181.996 94.802L176.667 92.0455L183.871 90.2401C194.115 87.676 195.504 87.8793 204.226 93.2172C211.682 97.7791 218.121 98.8257 218.123 95.4763C218.123 94.6158 210.486 87.5633 201.151 79.8021C191.816 72.0425 184.178 64.6505 184.178 63.3755C184.178 59.4675 180.567 58.4255 164.769 57.7763C153.755 57.3242 147.43 57.8342 141.789 59.6333ZM190.248 127.396C174.312 131.293 162.578 137.482 151.389 147.891C141.826 156.788 141.66 157.087 139.795 168.749C136.695 188.126 128.167 201.959 114.181 210.297L108.675 213.581L115.65 213.586C119.486 213.589 125.624 212.148 129.291 210.383C137.089 206.628 155.031 188.373 164.381 174.679C167.98 169.407 171.321 165.094 171.802 165.094C173.065 165.094 165.554 177.841 155.174 193.317L146.213 206.678L153.104 206.977C167.327 207.592 180.186 216.29 191.387 232.874C196.669 240.691 197.721 241.639 196.91 237.841C195.264 230.155 193.054 201.344 193.871 198.237C194.39 196.264 192.861 194.021 189.009 191.098C181.993 185.776 181.701 183.242 188.504 186.726C192.104 188.568 197.572 189.343 206.986 189.343H220.357L220.009 183.461C219.817 180.224 220.482 175.648 221.489 173.292C222.494 170.934 223.358 167.602 223.41 165.886C223.466 164.005 224.588 162.763 226.238 162.757C229.64 162.746 229.614 161.946 225.804 149.676C222.101 137.754 221.93 133.273 225.076 130.676C226.373 129.605 227.435 127.759 227.435 126.574C227.435 123.428 204.388 123.938 190.248 127.396Z" fill="#03A9F4"/>
</g>
<g filter="url(#filter1_i_699_900)">
<path d="M29.44 277.64C29.5253 277.981 29.6107 278.301 29.696 278.6C29.7813 278.856 29.8667 279.112 29.952 279.368C29.9947 279.667 30.0587 279.944 30.144 280.2C30.2293 280.456 30.3147 280.755 30.4 281.096C30.9973 282.931 31.872 285.469 33.024 288.712C34.176 291.912 35.392 295.24 36.672 298.696C36.7573 298.909 36.8427 299.123 36.928 299.336C37.0133 299.549 37.0987 299.763 37.184 299.976C38.72 304.2 40.1707 308.104 41.536 311.688C42.944 315.229 43.8827 317.512 44.352 318.536C44.48 318.877 44.608 319.176 44.736 319.432C44.864 319.688 44.992 319.965 45.12 320.264C45.2053 320.477 45.312 320.712 45.44 320.968C45.568 321.181 45.696 321.416 45.824 321.672C46.0373 322.099 46.464 322.483 47.104 322.824C47.7867 323.165 48.512 323.485 49.28 323.784C49.4507 323.827 49.6213 323.891 49.792 323.976C49.9627 324.061 50.1333 324.125 50.304 324.168C50.432 324.211 50.5387 324.275 50.624 324.36C50.752 324.403 50.88 324.445 51.008 324.488L52.352 325H33.408L35.072 324.36C35.328 324.317 35.6053 324.232 35.904 324.104C36.2027 323.976 36.5227 323.848 36.864 323.72C37.4613 323.507 37.9947 323.251 38.464 322.952C38.976 322.653 39.296 322.291 39.424 321.864C39.424 321.821 39.4453 321.779 39.488 321.736C39.488 321.693 39.488 321.672 39.488 321.672C39.488 321.629 39.488 321.587 39.488 321.544C39.488 321.331 39.4453 321.053 39.36 320.712C39.2747 320.371 39.168 320.051 39.04 319.752C38.9973 319.581 38.9547 319.432 38.912 319.304C38.8693 319.176 38.8267 319.048 38.784 318.92C38.7413 318.749 38.6773 318.6 38.592 318.472C38.5493 318.301 38.5067 318.152 38.464 318.024L34.176 305.992H18.368L13.888 317.96C13.8453 318.088 13.8027 318.195 13.76 318.28C13.76 318.323 13.76 318.387 13.76 318.472C13.6747 318.643 13.5893 318.835 13.504 319.048C13.4613 319.261 13.4187 319.475 13.376 319.688C13.248 320.157 13.1413 320.605 13.056 321.032C12.9707 321.459 12.928 321.779 12.928 321.992C12.928 322.035 12.928 322.077 12.928 322.12C12.928 322.12 12.928 322.141 12.928 322.184C13.0987 322.568 13.4187 322.888 13.888 323.144C14.4 323.357 14.9547 323.571 15.552 323.784C15.6373 323.784 15.7227 323.805 15.808 323.848C15.8933 323.848 15.9573 323.869 16 323.912C16.2133 323.997 16.4267 324.083 16.64 324.168C16.8533 324.211 17.0453 324.275 17.216 324.36L18.944 325H1.472L2.88 324.488C3.17867 324.403 3.49867 324.296 3.84 324.168C4.224 324.04 4.58667 323.912 4.928 323.784C5.65333 323.528 6.336 323.229 6.976 322.888C7.616 322.547 8.04267 322.184 8.256 321.8C8.384 321.587 8.49067 321.373 8.576 321.16C8.66133 320.947 8.74667 320.755 8.832 320.584C8.91733 320.456 8.98133 320.328 9.024 320.2C9.06667 320.072 9.10933 319.923 9.152 319.752C9.23733 319.581 9.30133 319.411 9.344 319.24C9.42933 319.069 9.51467 318.877 9.6 318.664C10.1547 317.469 10.688 316.232 11.2 314.952C11.7547 313.629 12.3093 312.285 12.864 310.92C13.1627 310.237 13.4613 309.555 13.76 308.872C14.0587 308.147 14.3573 307.421 14.656 306.696C16.8747 301.192 18.88 296.051 20.672 291.272C22.464 286.451 23.5733 283.379 24 282.056C24.128 281.629 24.2347 281.245 24.32 280.904C24.448 280.563 24.5547 280.221 24.64 279.88C24.64 279.752 24.6613 279.645 24.704 279.56C24.7467 279.432 24.768 279.304 24.768 279.176C24.8533 278.963 24.9173 278.728 24.96 278.472C25.0453 278.216 25.1093 277.96 25.152 277.704L29.44 277.64ZM32.704 302.664L26.24 285.896L19.712 302.664H32.704ZM55.4765 276.616L58.1645 277.64H88.3725L91.7005 276.424L91.5725 290.76L90.5485 287.368C90.5058 287.325 90.4632 287.283 90.4205 287.24C90.4205 287.155 90.4205 287.091 90.4205 287.048C90.3352 286.792 90.2498 286.536 90.1645 286.28C90.1218 286.024 90.0578 285.768 89.9725 285.512C89.6738 284.659 89.3538 283.869 89.0125 283.144C88.6712 282.376 88.2018 281.885 87.6045 281.672C87.3912 281.587 87.1778 281.523 86.9645 281.48C86.7512 281.437 86.5378 281.416 86.3245 281.416C86.1112 281.373 85.8978 281.352 85.6845 281.352C85.4712 281.352 85.2365 281.352 84.9805 281.352C84.8952 281.352 84.8098 281.352 84.7245 281.352C84.6818 281.352 84.6178 281.352 84.5325 281.352L76.0845 281.288V318.792C76.0845 319.517 76.1058 320.157 76.1485 320.712C76.2338 321.224 76.4898 321.736 76.9165 322.248C77.1725 322.589 77.6205 322.888 78.2605 323.144C78.9432 323.357 79.6472 323.549 80.3725 323.72C80.5005 323.763 80.6072 323.805 80.6925 323.848C80.8205 323.891 80.9485 323.912 81.0765 323.912C81.4178 323.997 81.7378 324.104 82.0365 324.232C82.3352 324.317 82.6125 324.403 82.8685 324.488L84.2765 325H62.5805L64.0525 324.552C64.3938 324.509 64.7778 324.424 65.2045 324.296C65.6738 324.168 66.1432 324.04 66.6125 323.912C67.0392 323.741 67.4658 323.592 67.8925 323.464C68.3192 323.293 68.7032 323.123 69.0445 322.952C69.2578 322.867 69.4498 322.76 69.6205 322.632C69.7912 322.504 69.9192 322.397 70.0045 322.312C70.1325 322.099 70.2392 321.907 70.3245 321.736C70.4525 321.523 70.5378 321.309 70.5805 321.096C70.6232 320.883 70.6445 320.669 70.6445 320.456C70.6872 320.243 70.7085 320.051 70.7085 319.88C70.7085 319.752 70.7085 319.645 70.7085 319.56C70.7085 319.432 70.7085 319.325 70.7085 319.24C70.6658 319.112 70.6445 319.005 70.6445 318.92C70.6445 318.792 70.6445 318.685 70.6445 318.6V281.288H60.7245C60.5112 281.331 60.2978 281.352 60.0845 281.352C59.9138 281.352 59.7432 281.373 59.5725 281.416C59.4872 281.459 59.3805 281.501 59.2525 281.544C59.1672 281.587 59.0818 281.629 58.9965 281.672C58.4845 282.013 58.0792 282.611 57.7805 283.464C57.4818 284.317 57.2258 285.235 57.0125 286.216C56.9698 286.344 56.9272 286.493 56.8845 286.664C56.8845 286.792 56.8632 286.92 56.8205 287.048C56.7778 287.261 56.7138 287.475 56.6285 287.688C56.5858 287.901 56.5432 288.115 56.5005 288.328L55.7965 290.504L55.4765 276.616ZM142.134 280.392C142.091 280.52 142.027 280.627 141.942 280.712C141.899 280.755 141.857 280.819 141.814 280.904C141.558 281.331 141.409 281.757 141.366 282.184C141.366 282.568 141.366 283.016 141.366 283.528C141.366 283.613 141.366 283.699 141.366 283.784C141.366 283.827 141.366 283.891 141.366 283.976L141.43 318.792C141.43 318.92 141.43 319.027 141.43 319.112C141.43 319.155 141.43 319.219 141.43 319.304C141.43 319.859 141.451 320.371 141.494 320.84C141.537 321.309 141.75 321.779 142.134 322.248C142.39 322.589 142.838 322.888 143.478 323.144C144.161 323.357 144.865 323.549 145.59 323.72C145.718 323.763 145.825 323.805 145.91 323.848C146.038 323.891 146.166 323.912 146.294 323.912C146.593 323.997 146.891 324.104 147.19 324.232C147.531 324.317 147.83 324.403 148.086 324.488L149.43 325H127.798L129.27 324.552C129.611 324.509 129.995 324.424 130.422 324.296C130.891 324.168 131.361 324.04 131.83 323.912C132.257 323.741 132.683 323.592 133.11 323.464C133.537 323.293 133.921 323.123 134.262 322.952C134.475 322.867 134.667 322.76 134.838 322.632C135.009 322.504 135.137 322.397 135.222 322.312C135.307 322.184 135.371 322.056 135.414 321.928C135.499 321.8 135.585 321.672 135.67 321.544C135.755 321.288 135.798 321.032 135.798 320.776C135.841 320.52 135.862 320.264 135.862 320.008C135.862 319.837 135.862 319.667 135.862 319.496C135.862 319.283 135.862 319.069 135.862 318.856V302.664H108.534V318.792C108.534 319.517 108.555 320.157 108.598 320.712C108.683 321.224 108.939 321.736 109.366 322.248C109.622 322.589 110.07 322.888 110.71 323.144C111.393 323.357 112.097 323.549 112.822 323.72C112.95 323.763 113.057 323.805 113.142 323.848C113.27 323.891 113.398 323.912 113.526 323.912C113.867 323.997 114.187 324.104 114.486 324.232C114.785 324.317 115.062 324.403 115.318 324.488L116.726 325H95.03L96.502 324.552C96.8433 324.509 97.2273 324.424 97.654 324.296C98.1233 324.168 98.5927 324.04 99.062 323.912C99.4887 323.741 99.9153 323.592 100.342 323.464C100.769 323.293 101.153 323.123 101.494 322.952C101.707 322.867 101.899 322.76 102.07 322.632C102.241 322.504 102.369 322.397 102.454 322.312C102.582 322.099 102.689 321.907 102.774 321.736C102.902 321.523 102.987 321.309 103.03 321.096C103.073 320.883 103.094 320.669 103.094 320.456C103.137 320.243 103.158 320.051 103.158 319.88C103.158 319.752 103.158 319.645 103.158 319.56C103.158 319.432 103.158 319.325 103.158 319.24C103.115 319.112 103.094 319.005 103.094 318.92C103.094 318.792 103.094 318.685 103.094 318.6V284.104C103.094 284.061 103.094 283.997 103.094 283.912C103.094 283.784 103.115 283.656 103.158 283.528C103.158 283.443 103.158 283.336 103.158 283.208C103.158 283.08 103.158 282.952 103.158 282.824C103.158 282.653 103.137 282.504 103.094 282.376C103.094 282.205 103.073 282.035 103.03 281.864C102.987 281.608 102.923 281.373 102.838 281.16C102.753 280.904 102.625 280.669 102.454 280.456C102.369 280.371 102.241 280.264 102.07 280.136C101.899 280.008 101.707 279.901 101.494 279.816C101.153 279.645 100.769 279.496 100.342 279.368C99.9153 279.197 99.4887 279.027 99.062 278.856C98.5927 278.728 98.1233 278.6 97.654 278.472C97.2273 278.344 96.8433 278.237 96.502 278.152L95.03 277.64H116.726L115.318 278.216C115.062 278.387 114.763 278.515 114.422 278.6C114.081 278.685 113.718 278.771 113.334 278.856C113.249 278.899 113.163 278.941 113.078 278.984C112.993 278.984 112.907 279.005 112.822 279.048C112.097 279.219 111.393 279.432 110.71 279.688C110.07 279.901 109.622 280.157 109.366 280.456C109.323 280.541 109.259 280.627 109.174 280.712C109.131 280.755 109.089 280.819 109.046 280.904C108.79 281.373 108.641 281.864 108.598 282.376C108.555 282.845 108.534 283.379 108.534 283.976V298.76H135.862V283.912C135.862 283.741 135.862 283.549 135.862 283.336C135.862 283.08 135.862 282.867 135.862 282.696C135.862 282.269 135.819 281.885 135.734 281.544C135.691 281.16 135.521 280.797 135.222 280.456C135.137 280.371 135.009 280.264 134.838 280.136C134.667 280.008 134.475 279.901 134.262 279.816C133.921 279.645 133.537 279.496 133.11 279.368C132.683 279.197 132.257 279.027 131.83 278.856C131.361 278.728 130.891 278.6 130.422 278.472C129.995 278.344 129.611 278.237 129.27 278.152L127.798 277.64H149.43L148.086 278.216C147.83 278.387 147.531 278.515 147.19 278.6C146.849 278.685 146.486 278.771 146.102 278.856C146.017 278.899 145.931 278.941 145.846 278.984C145.761 278.984 145.675 279.005 145.59 279.048C144.865 279.219 144.161 279.432 143.478 279.688C142.838 279.901 142.39 280.157 142.134 280.456V280.392ZM152.414 277.64H184.478L184.414 288.136L183.518 285.576C183.433 285.405 183.347 285.213 183.262 285C183.219 284.787 183.155 284.595 183.07 284.424C182.857 283.827 182.622 283.315 182.366 282.888C182.153 282.419 181.79 282.013 181.278 281.672C180.937 281.459 180.553 281.288 180.126 281.16C179.699 281.032 179.273 280.947 178.846 280.904C178.59 280.904 178.334 280.904 178.078 280.904C177.865 280.861 177.63 280.84 177.374 280.84L169.502 280.776C169.417 280.819 169.331 280.84 169.246 280.84C169.161 280.84 169.054 280.84 168.926 280.84C168.414 280.84 167.902 280.861 167.39 280.904C166.921 280.947 166.558 281.096 166.302 281.352C166.131 281.523 166.025 281.821 165.982 282.248C165.939 282.632 165.918 283.059 165.918 283.528C165.918 283.528 165.918 283.549 165.918 283.592C165.918 283.592 165.918 283.613 165.918 283.656C165.918 283.699 165.918 283.763 165.918 283.848C165.918 283.891 165.918 283.933 165.918 283.976V299.272H175.006C175.262 299.315 175.518 299.336 175.774 299.336C176.03 299.336 176.286 299.336 176.542 299.336C177.054 299.336 177.523 299.315 177.95 299.272C178.419 299.187 178.846 298.995 179.23 298.696C179.315 298.611 179.401 298.547 179.486 298.504C179.571 298.419 179.635 298.333 179.678 298.248C179.891 298.077 180.041 297.907 180.126 297.736C180.254 297.565 180.382 297.352 180.51 297.096L181.854 294.28V309.32L181.278 307.848C181.235 307.72 181.171 307.571 181.086 307.4C181.043 307.229 181.001 307.059 180.958 306.888C180.915 306.803 180.873 306.739 180.83 306.696C180.83 306.611 180.809 306.525 180.766 306.44C180.553 305.757 180.297 305.117 179.998 304.52C179.742 303.88 179.379 303.432 178.91 303.176C178.654 303.005 178.398 302.877 178.142 302.792C177.886 302.707 177.63 302.643 177.374 302.6C177.118 302.557 176.841 302.536 176.542 302.536C176.286 302.536 175.987 302.536 175.646 302.536C175.603 302.536 175.539 302.536 175.454 302.536C175.411 302.536 175.369 302.536 175.326 302.536L165.918 302.472V318.216C165.918 318.429 165.918 318.664 165.918 318.92C165.961 319.176 166.003 319.411 166.046 319.624C166.131 320.093 166.238 320.52 166.366 320.904C166.537 321.245 166.75 321.48 167.006 321.608C167.347 321.779 167.646 321.885 167.902 321.928C168.201 321.971 168.499 321.992 168.798 321.992C168.926 321.992 169.033 321.992 169.118 321.992C169.246 321.992 169.374 321.971 169.502 321.928C169.587 321.928 169.694 321.928 169.822 321.928C169.95 321.928 170.078 321.928 170.206 321.928L180.702 321.864C180.83 321.907 180.958 321.928 181.086 321.928C181.214 321.928 181.342 321.928 181.47 321.928C181.555 321.971 181.662 321.992 181.79 321.992C181.918 321.992 182.046 321.992 182.174 321.992C182.387 321.992 182.601 321.971 182.814 321.928C183.027 321.885 183.241 321.821 183.454 321.736C183.795 321.565 184.073 321.224 184.286 320.712C184.542 320.2 184.777 319.624 184.99 318.984C185.033 318.856 185.075 318.728 185.118 318.6C185.161 318.429 185.203 318.28 185.246 318.152C185.331 317.896 185.417 317.64 185.502 317.384C185.63 317.128 185.737 316.893 185.822 316.68L186.654 314.632L186.334 325H152.414L153.886 324.552C154.227 324.509 154.611 324.424 155.038 324.296C155.507 324.168 155.977 324.04 156.446 323.912C156.873 323.741 157.299 323.592 157.726 323.464C158.153 323.293 158.537 323.123 158.878 322.952C159.091 322.867 159.283 322.76 159.454 322.632C159.625 322.504 159.753 322.397 159.838 322.312C160.051 322.056 160.201 321.779 160.286 321.48C160.371 321.139 160.435 320.797 160.478 320.456C160.478 320.328 160.478 320.2 160.478 320.072C160.478 319.944 160.478 319.816 160.478 319.688C160.478 319.475 160.478 319.283 160.478 319.112C160.478 318.941 160.478 318.771 160.478 318.6V283.912C160.478 283.741 160.478 283.549 160.478 283.336C160.478 283.08 160.478 282.867 160.478 282.696C160.478 282.269 160.435 281.885 160.35 281.544C160.307 281.16 160.137 280.797 159.838 280.456C159.753 280.371 159.625 280.264 159.454 280.136C159.283 280.008 159.091 279.901 158.878 279.816C158.537 279.645 158.153 279.496 157.726 279.368C157.299 279.197 156.873 279.027 156.446 278.856C155.977 278.728 155.507 278.6 155.038 278.472C154.611 278.344 154.227 278.237 153.886 278.152L152.414 277.64ZM237.904 325.128C234.576 321.416 232.442 319.069 231.504 318.088C230.608 317.064 229.946 316.317 229.52 315.848C229.264 315.592 228.965 315.293 228.624 314.952C228.282 314.611 227.706 314.013 226.896 313.16C226 312.221 225.104 311.283 224.208 310.344C223.312 309.405 222.394 308.445 221.456 307.464C221.285 307.251 221.093 307.059 220.88 306.888C220.666 306.675 220.474 306.461 220.304 306.248C216.122 301.896 212.154 297.843 208.4 294.088C204.645 290.291 201.957 287.603 200.336 286.024V313.672C200.336 313.843 200.336 314.056 200.336 314.312C200.336 314.525 200.336 314.76 200.336 315.016C200.293 315.272 200.272 315.571 200.272 315.912C200.272 316.211 200.272 316.531 200.272 316.872C200.272 317.128 200.272 317.384 200.272 317.64C200.272 317.896 200.272 318.152 200.272 318.408C200.314 319.091 200.378 319.773 200.464 320.456C200.592 321.139 200.762 321.693 200.976 322.12C201.189 322.547 201.594 322.909 202.192 323.208C202.832 323.507 203.493 323.784 204.176 324.04C204.389 324.125 204.581 324.211 204.752 324.296C204.922 324.339 205.093 324.381 205.264 324.424L207.056 325H190.352L191.44 324.488C191.653 324.445 191.845 324.381 192.016 324.296C192.229 324.211 192.442 324.125 192.656 324.04C193.381 323.741 194.064 323.421 194.704 323.08C195.386 322.739 195.856 322.333 196.112 321.864C196.325 321.48 196.453 320.819 196.496 319.88C196.581 318.899 196.645 317.853 196.688 316.744C196.688 316.232 196.688 315.72 196.688 315.208C196.688 314.696 196.688 314.227 196.688 313.8V277.64H200.4C200.869 278.237 201.424 278.963 202.064 279.816C202.704 280.627 203.557 281.587 204.624 282.696C206.416 284.531 208.378 286.557 210.512 288.776C212.688 290.995 214.885 293.256 217.104 295.56C221.626 300.296 225.85 304.712 229.776 308.808C233.744 312.904 236.176 315.357 237.072 316.168V288.904C237.072 288.605 237.072 288.285 237.072 287.944C237.072 287.56 237.072 287.176 237.072 286.792C237.072 286.408 237.072 286.045 237.072 285.704C237.072 285.32 237.072 284.957 237.072 284.616C237.072 283.763 237.05 282.995 237.008 282.312C236.965 281.587 236.858 281.075 236.688 280.776C236.474 280.349 236.048 279.987 235.408 279.688C234.81 279.389 234.17 279.112 233.488 278.856C233.402 278.813 233.338 278.792 233.296 278.792C233.253 278.749 233.21 278.728 233.168 278.728C232.954 278.643 232.741 278.557 232.528 278.472C232.314 278.387 232.101 278.301 231.888 278.216L230.8 277.64H247.504L245.712 278.408C245.584 278.493 245.456 278.557 245.328 278.6C245.242 278.643 245.136 278.685 245.008 278.728C244.325 279.027 243.706 279.325 243.152 279.624C242.64 279.88 242.17 280.221 241.744 280.648C241.53 280.861 241.36 281.373 241.232 282.184C241.146 282.952 241.082 283.784 241.04 284.68C240.997 285.192 240.976 285.704 240.976 286.216C240.976 286.685 240.976 287.112 240.976 287.496C240.976 287.923 240.976 288.264 240.976 288.52C240.976 288.733 240.976 288.84 240.976 288.84V325.128H237.904ZM277.94 277.64C278.025 277.981 278.111 278.301 278.196 278.6C278.281 278.856 278.367 279.112 278.452 279.368C278.495 279.667 278.559 279.944 278.644 280.2C278.729 280.456 278.815 280.755 278.9 281.096C279.497 282.931 280.372 285.469 281.524 288.712C282.676 291.912 283.892 295.24 285.172 298.696C285.257 298.909 285.343 299.123 285.428 299.336C285.513 299.549 285.599 299.763 285.684 299.976C287.22 304.2 288.671 308.104 290.036 311.688C291.444 315.229 292.383 317.512 292.852 318.536C292.98 318.877 293.108 319.176 293.236 319.432C293.364 319.688 293.492 319.965 293.62 320.264C293.705 320.477 293.812 320.712 293.94 320.968C294.068 321.181 294.196 321.416 294.324 321.672C294.537 322.099 294.964 322.483 295.604 322.824C296.287 323.165 297.012 323.485 297.78 323.784C297.951 323.827 298.121 323.891 298.292 323.976C298.463 324.061 298.633 324.125 298.804 324.168C298.932 324.211 299.039 324.275 299.124 324.36C299.252 324.403 299.38 324.445 299.508 324.488L300.852 325H281.908L283.572 324.36C283.828 324.317 284.105 324.232 284.404 324.104C284.703 323.976 285.023 323.848 285.364 323.72C285.961 323.507 286.495 323.251 286.964 322.952C287.476 322.653 287.796 322.291 287.924 321.864C287.924 321.821 287.945 321.779 287.988 321.736C287.988 321.693 287.988 321.672 287.988 321.672C287.988 321.629 287.988 321.587 287.988 321.544C287.988 321.331 287.945 321.053 287.86 320.712C287.775 320.371 287.668 320.051 287.54 319.752C287.497 319.581 287.455 319.432 287.412 319.304C287.369 319.176 287.327 319.048 287.284 318.92C287.241 318.749 287.177 318.6 287.092 318.472C287.049 318.301 287.007 318.152 286.964 318.024L282.676 305.992H266.868L262.388 317.96C262.345 318.088 262.303 318.195 262.26 318.28C262.26 318.323 262.26 318.387 262.26 318.472C262.175 318.643 262.089 318.835 262.004 319.048C261.961 319.261 261.919 319.475 261.876 319.688C261.748 320.157 261.641 320.605 261.556 321.032C261.471 321.459 261.428 321.779 261.428 321.992C261.428 322.035 261.428 322.077 261.428 322.12C261.428 322.12 261.428 322.141 261.428 322.184C261.599 322.568 261.919 322.888 262.388 323.144C262.9 323.357 263.455 323.571 264.052 323.784C264.137 323.784 264.223 323.805 264.308 323.848C264.393 323.848 264.457 323.869 264.5 323.912C264.713 323.997 264.927 324.083 265.14 324.168C265.353 324.211 265.545 324.275 265.716 324.36L267.444 325H249.972L251.38 324.488C251.679 324.403 251.999 324.296 252.34 324.168C252.724 324.04 253.087 323.912 253.428 323.784C254.153 323.528 254.836 323.229 255.476 322.888C256.116 322.547 256.543 322.184 256.756 321.8C256.884 321.587 256.991 321.373 257.076 321.16C257.161 320.947 257.247 320.755 257.332 320.584C257.417 320.456 257.481 320.328 257.524 320.2C257.567 320.072 257.609 319.923 257.652 319.752C257.737 319.581 257.801 319.411 257.844 319.24C257.929 319.069 258.015 318.877 258.1 318.664C258.655 317.469 259.188 316.232 259.7 314.952C260.255 313.629 260.809 312.285 261.364 310.92C261.663 310.237 261.961 309.555 262.26 308.872C262.559 308.147 262.857 307.421 263.156 306.696C265.375 301.192 267.38 296.051 269.172 291.272C270.964 286.451 272.073 283.379 272.5 282.056C272.628 281.629 272.735 281.245 272.82 280.904C272.948 280.563 273.055 280.221 273.14 279.88C273.14 279.752 273.161 279.645 273.204 279.56C273.247 279.432 273.268 279.304 273.268 279.176C273.353 278.963 273.417 278.728 273.46 278.472C273.545 278.216 273.609 277.96 273.652 277.704L277.94 277.64ZM281.204 302.664L274.74 285.896L268.212 302.664H281.204Z" fill="#03A9F4"/>
</g>
<defs>
<filter id="filter0_i_699_900" x="63" y="0" width="177" height="244" filterUnits="userSpaceOnUse" color-interpolation-filters="sRGB">
<feFlood flood-opacity="0" result="BackgroundImageFix"/>
<feBlend mode="normal" in="SourceGraphic" in2="BackgroundImageFix" result="shape"/>
<feColorMatrix in="SourceAlpha" type="matrix" values="0 0 0 0 0 0 0 0 0 0 0 0 0 0 0 0 0 0 127 0" result="hardAlpha"/>
<feOffset dy="4"/>
<feGaussianBlur stdDeviation="2"/>
<feComposite in2="hardAlpha" operator="arithmetic" k2="-1" k3="1"/>
<feColorMatrix type="matrix" values="0 0 0 0 0 0 0 0 0 0 0 0 0 0 0 0 0 0 0.25 0"/>
<feBlend mode="normal" in2="shape" result="effect1_innerShadow_699_900"/>
</filter>
<filter id="filter1_i_699_900" x="1.47217" y="276.424" width="299.38" height="52.7041" filterUnits="userSpaceOnUse" color-interpolation-filters="sRGB">
<feFlood flood-opacity="0" result="BackgroundImageFix"/>
<feBlend mode="normal" in="SourceGraphic" in2="BackgroundImageFix" result="shape"/>
<feColorMatrix in="SourceAlpha" type="matrix" values="0 0 0 0 0 0 0 0 0 0 0 0 0 0 0 0 0 0 127 0" result="hardAlpha"/>
<feOffset dy="4"/>
<feGaussianBlur stdDeviation="2"/>
<feComposite in2="hardAlpha" operator="arithmetic" k2="-1" k3="1"/>
<feColorMatrix type="matrix" values="0 0 0 0 0 0 0 0 0 0 0 0 0 0 0 0 0 0 0.25 0"/>
<feBlend mode="normal" in2="shape" result="effect1_innerShadow_699_900"/>
</filter>
</defs>
</svg>
