<?xml version="1.0" encoding="iso-8859-1"?>
<!-- Generator: Adobe Illustrator 16.0.0, SVG Export Plug-In . SVG Version: 6.00 Build 0)  -->
<!DOCTYPE svg PUBLIC "-//W3C//DTD SVG 1.1//EN" "http://www.w3.org/Graphics/SVG/1.1/DTD/svg11.dtd">
<svg version="1.1" id="Capa_1" xmlns="http://www.w3.org/2000/svg" xmlns:xlink="http://www.w3.org/1999/xlink" x="0px" y="0px"
	 width="45.453px" height="45.453px" viewBox="0 0 45.453 45.453" style="enable-background:new 0 0 45.453 45.453;"
	 xml:space="preserve">
<g>
	<path fill="white" d="M36.384,16.648V8.579c0-4.73-3.85-8.579-8.579-8.579H17.647c-4.73,0-8.579,3.849-8.579,8.579v8.069
		c-2.254,0.485-3.946,2.485-3.946,4.884v18.921c0,2.761,2.239,5,5,5h25.208c2.762,0,5-2.239,5-5V21.532
		C40.331,19.133,38.638,17.133,36.384,16.648z M16.068,8.579C16.068,7.708,16.776,7,17.647,7h10.158
		c0.871,0,1.579,0.708,1.579,1.579v7.953H16.068V8.579z M28.402,28.993H17.051c0.825-2.341,3.051-4.022,5.675-4.022
		C25.35,24.971,27.576,26.652,28.402,28.993z M22.727,37.016c-2.624,0-4.849-1.682-5.675-4.022H28.4
		C27.576,35.334,25.35,37.016,22.727,37.016z"/>
</g>
<g>
</g>
<g>
</g>
<g>
</g>
<g>
</g>
<g>
</g>
<g>
</g>
<g>
</g>
<g>
</g>
<g>
</g>
<g>
</g>
<g>
</g>
<g>
</g>
<g>
</g>
<g>
</g>
<g>
</g>
</svg>
