<svg width="177" height="240" viewBox="0 0 177 240" fill="none" xmlns="http://www.w3.org/2000/svg">
<path fill-rule="evenodd" clip-rule="evenodd" d="M80.7494 0.871251C75.8181 1.6347 67.9092 3.38062 63.1745 4.74951L54.5672 7.23697L58.3801 15.8101C60.4753 20.5253 62.1914 24.8495 62.1914 25.4189C62.1914 25.9884 58.7544 22.6374 54.553 17.9722L46.9146 9.48977L35.5546 18.7341C8.49931 40.7489 -3.45688 66.3886 0.862517 93.1296C3.3085 108.273 7.20633 118.377 21.7029 147.148C28.2182 160.08 34.6847 174.465 36.0736 179.113C39.012 188.956 39.3706 202.93 36.8098 207.828C35.0748 211.147 35.1409 211.139 39.0419 207.572C46.2115 201.018 50.3107 189.302 50.3469 175.263C50.3736 164.765 49.4298 160.056 44.4859 146.053C34.0508 116.488 33.2564 97.036 41.708 77.9921C45.9362 68.4693 56.5255 57.8373 66.6854 52.9187C74.8397 48.9701 77.0954 48.6165 94.4374 48.5821C104.819 48.5602 115.637 49.0577 118.476 49.6866C123.13 50.7191 123.791 50.4109 125.192 46.5577C128.167 38.3866 130.665 34.5897 138.902 25.7084L147.189 16.7754L139.455 12.0414C123.983 2.57336 99.6519 -2.05582 80.7494 0.871251ZM78.7895 59.6333C64.5383 64.1796 52.9061 74.677 48.1541 87.2833C43.2276 100.35 43.2496 120.704 48.2029 132.632C50.2729 137.616 52.7535 138.308 52.7535 133.899C52.7535 128.442 60.8937 108.175 66.429 99.8473C74.9467 87.0346 87.5226 77.4727 102.993 72.044C112.047 68.8667 112.966 70.1432 104.657 74.3579C86.7189 83.4598 68.1577 108.813 59.7265 135.725C57.0304 144.335 57.0305 144.806 59.7454 147.791C61.2995 149.498 64.9583 151.679 67.8746 152.636C73.0906 154.349 73.3391 154.215 83.0208 144.482C94.4595 132.985 107.706 125.485 122.68 122.031C134.367 119.336 157.893 118.838 169.547 121.039C173.657 121.815 177.011 122.012 177 121.479C176.991 120.944 173.535 117.116 169.322 112.971C162.299 106.061 161.203 105.52 156.156 106.462C151.491 107.332 149.309 106.601 141.844 101.671C135.178 97.2707 131.977 96.0629 128.68 96.7075C126.056 97.2206 122.205 96.4634 118.996 94.802L113.667 92.0455L120.871 90.2401C131.115 87.676 132.504 87.8793 141.226 93.2172C148.682 97.7791 155.121 98.8257 155.123 95.4763C155.123 94.6158 147.486 87.5633 138.151 79.8021C128.816 72.0425 121.178 64.6505 121.178 63.3755C121.178 59.4675 117.567 58.4255 101.769 57.7763C90.7551 57.3242 84.4302 57.8342 78.7895 59.6333ZM127.248 127.396C111.312 131.293 99.5779 137.482 88.3894 147.891C78.8256 156.788 78.6605 157.087 76.7949 168.749C73.6946 188.126 65.1675 201.959 51.1805 210.297L45.6751 213.581L52.6497 213.586C56.4862 213.589 62.624 212.148 66.2906 210.383C74.0894 206.628 92.0308 188.373 101.381 174.679C104.98 169.407 108.321 165.094 108.802 165.094C110.065 165.094 102.554 177.841 92.1739 193.317L83.2127 206.678L90.1039 206.977C104.327 207.592 117.186 216.29 128.387 232.874C133.669 240.691 134.721 241.639 133.91 237.841C132.264 230.155 130.054 201.344 130.871 198.237C131.39 196.264 129.861 194.021 126.009 191.098C118.993 185.776 118.701 183.242 125.504 186.726C129.104 188.568 134.572 189.343 143.986 189.343H157.357L157.009 183.461C156.817 180.224 157.482 175.648 158.489 173.292C159.494 170.934 160.358 167.602 160.41 165.886C160.466 164.005 161.588 162.763 163.238 162.757C166.64 162.746 166.614 161.946 162.804 149.676C159.101 137.754 158.93 133.273 162.076 130.676C163.373 129.605 164.435 127.759 164.435 126.574C164.435 123.428 141.388 123.938 127.248 127.396Z" fill="white"/>
</svg>
