<svg width="218" height="232" viewBox="0 0 218 232" fill="none" xmlns="http://www.w3.org/2000/svg">
<path fill-rule="evenodd" clip-rule="evenodd" d="M77.3333 0.611734C70.3673 1.70504 52.8726 6.27783 51.9203 7.25315C51.5461 7.63758 52.7327 11.1593 54.5574 15.0793C56.3821 19.0002 57.6229 22.2074 57.3137 22.2074C57.0055 22.2074 54.1163 19.3355 50.8942 15.8246C46.2709 10.7867 44.6904 9.62853 43.3935 10.3266C39.1326 12.6204 25.822 25.039 20.6216 31.5722C9.32375 45.7665 5.20757 57.8312 6.11746 74.0754C6.57831 82.3007 6.35379 85.1116 4.90032 89.3295C-0.942096 106.284 -1.63928 131.905 3.23416 150.49C8.20509 169.442 19.6949 188.669 34.2345 202.363C63.2969 229.736 105.215 239.007 143.67 226.564C152.575 223.684 167.547 215.858 175.252 210.058C183.28 204.014 194.29 192.533 199.735 184.528C205.866 175.514 212.227 161.593 215.276 150.513C217.757 141.496 217.983 139.214 217.999 122.984C218.015 107.47 217.729 104.195 215.682 96.4379C205.187 56.669 174.438 25.8186 136.284 16.7802C125.811 14.2996 126.224 14.6703 129.813 10.9745L133.021 7.66903L127.334 5.54536C124.207 4.37635 118.958 2.75409 115.672 1.94002C108.464 0.154551 85.3471 -0.646743 77.3333 0.611734ZM114.374 8.10459C118.03 8.91866 121.021 9.76715 121.021 9.99132C121.021 10.2145 118.448 13.8631 115.304 18.0977C112.158 22.3323 109.027 27.143 108.345 28.7869L107.105 31.7777L95.1068 31.7197C86.2452 31.6774 81.4928 32.1327 76.9276 33.4629C73.5273 34.453 70.583 35.0911 70.3831 34.8797C69.7588 34.2219 59.9676 12.2379 59.9676 11.4946C59.9676 10.5045 73.0576 7.46552 80.2462 6.78712C87.1393 6.13625 86.6922 5.63384 88.5652 16.1293C89.9753 24.0312 90.6627 23.8011 92.4243 14.8335C94.4549 4.5022 93.7695 5.19731 101.18 5.95633C104.781 6.32502 110.718 7.29149 114.374 8.10459ZM58.713 33.8031L63.2359 39.0091L60.8627 40.5959C56.3388 43.6241 48.5476 52.2467 45.4841 57.6149C35.3512 75.3751 34.3251 96.724 42.4895 119.936C46.3083 130.792 46.6697 132.65 46.6313 141.173C46.6057 146.657 46.0533 151.731 45.2921 153.463L43.9942 156.412L42.3024 150.513C40.2306 143.287 35.7687 132.851 30.0494 121.852L25.7392 113.561L30.2976 111.191L34.8569 108.819L29.2114 108.774L23.5659 108.728L21.0637 103.799C19.6881 101.088 17.1632 94.7832 15.4527 89.7886C12.8018 82.05 12.3341 79.2528 12.2898 70.8751C12.2405 61.5181 13.7708 53.6693 15.6438 53.6693C16.0958 53.6693 20.1597 55.2188 24.6757 57.1125L32.8874 60.5556L27.9933 56.3751C25.302 54.0754 21.7609 51.0187 20.1263 49.5812L17.1534 46.967L21.9559 39.949C24.597 36.089 30.5753 29.3817 35.239 25.0439L43.7195 17.1578L48.9553 22.8779C51.8347 26.0241 56.2266 30.9401 58.713 33.8031ZM135.3 25.3123C144.427 27.5726 158.349 33.9525 166.754 39.7278C174.303 44.9151 186.06 56.4803 191.422 63.9928C205.439 83.6319 212.378 109.571 209.765 132.57C205.801 167.477 186.847 195.553 156.13 212.025C148.608 216.058 148.32 216.129 145.254 214.669C140.317 212.318 131.218 203.471 128.971 198.838C126.432 193.601 126.347 186.297 128.764 180.992C131.714 174.517 132.958 173.984 138.993 176.605C148.581 180.769 157.456 179.04 157.456 173.008C157.456 171.759 158.179 168.62 159.062 166.033C159.947 163.445 160.721 158.674 160.785 155.429C160.897 149.816 161.029 149.515 163.508 149.229C164.941 149.063 166.913 148.045 167.891 146.967C169.592 145.091 169.593 144.891 167.934 142.352C164.831 137.605 161.585 129.957 160.932 125.855L160.294 121.843L168.727 120.59C173.366 119.902 177.362 119.013 177.609 118.616C177.854 118.218 174.028 113.067 169.106 107.165C160.202 96.489 160.172 96.4359 162.901 95.9463C165.525 95.4754 164.854 94.6338 147.241 76.3052C130.87 59.2686 128.904 56.8706 129.41 54.568C129.887 52.401 129.532 51.8072 127.223 50.9076C114.77 46.0585 96.4096 44.4195 85.5952 47.1921C65.9636 52.2241 53.7608 68.1644 52.4127 90.5388C51.8071 100.596 53.4959 109.675 57.4043 117.376C59.0655 120.65 59.5165 122.558 58.8912 123.673C58.262 124.796 58.78 126.834 60.6273 130.507C62.3821 133.995 63.6239 138.679 64.3506 144.541L65.4397 153.342L68.9503 148.978C70.8804 146.577 74.0551 142.181 76.0039 139.206C87.2949 121.979 103.586 115.723 126.929 119.652C130.45 120.244 138.864 121.015 145.628 121.365L157.927 122.001L158.681 127.408C159.096 130.382 160.846 135.614 162.57 139.034C165.93 145.701 165.615 147.023 160.656 147.057C158.635 147.071 158.441 147.535 158.441 152.374C158.441 156.345 158.042 157.829 156.852 158.285C155.553 158.784 155.49 159.163 156.505 160.385C157.461 161.536 157.487 162.446 156.616 164.353C155.995 165.714 155.487 168.33 155.487 170.167C155.487 173.873 152.715 176.568 148.904 176.568C144.833 176.568 136.339 172.668 129.641 167.723L122.998 162.819L126.06 157.852C131.167 149.565 132.847 143.959 132.756 135.509L132.673 127.9L131.307 133.531C128.549 144.888 122.471 153.259 105.341 169.295C84.8714 188.455 78.5061 201.717 83.1797 215.462C84.0305 217.966 84.58 220.161 84.3998 220.341C84.2196 220.521 80.6519 219.539 76.4727 218.157C69.3688 215.81 68.8331 215.437 68.2679 212.43C67.4092 207.856 69.3796 199.519 72.6864 193.742C74.2432 191.021 81.1058 182.615 87.9369 175.061C95.7793 166.389 101.616 158.935 103.774 154.834C107.876 147.041 109.868 136.943 108.7 129.866L107.888 124.95L107.151 129.375C105.118 141.58 99.4662 150.09 83.8779 164.424C60.973 185.487 56.0286 192.297 56.0286 202.779C56.0286 205.667 55.6958 208.029 55.2901 208.028C54.8844 208.028 52.003 206.031 48.8893 203.59C43.7845 199.589 43.2291 198.79 43.2488 195.479C43.298 187.035 48.911 179.807 66.2758 165.826C81.2092 153.804 87.9487 146.265 90.0393 139.242C90.6607 137.155 90.058 137.45 85.6888 141.371C82.899 143.877 74.3082 149.801 66.5987 154.539C48.9425 165.39 38.5536 175.16 35.8574 183.45C34.8904 186.424 33.9322 189.046 33.7294 189.277C33.2163 189.859 31.2015 187.238 24.8264 177.697C12.2179 158.829 6.2691 135.027 8.70533 113.205C9.30306 107.857 10.0515 102.449 10.3686 101.189C10.9732 98.7808 12.7004 98.0041 12.7004 100.14C12.7004 100.823 17.1356 110.116 22.5566 120.79C38.2404 151.676 40.5309 161.251 35.8012 176.155C34.4413 180.441 45.5983 166.666 48.9317 159.943C52.2364 153.278 52.5752 151.811 52.9139 142.692C53.2753 132.944 53.1798 132.423 48.6028 119.006C44.4817 106.925 43.8672 104.037 43.4526 94.8216C42.1784 66.4508 55.1286 46.3485 79.1777 39.3689C83.871 38.0062 87.5332 37.7722 97.9251 38.1675L110.841 38.66L111.963 35.6898C112.581 34.0558 114.535 30.3334 116.305 27.4173C119.507 22.1425 119.545 22.1179 123.473 22.7383C125.644 23.0814 130.967 24.2397 135.3 25.3123ZM116.95 50.7394C126.838 53.106 127.198 53.2967 126.003 55.5266C125.232 56.965 127.953 60.2596 141.757 74.6073C150.932 84.1461 158.441 92.1856 158.441 92.4737C158.441 92.7618 156.244 92.9968 153.56 92.9968C148.718 92.9968 148.635 92.9427 143.279 86.3249L137.88 79.653L130.681 79.9558C126.723 80.1229 121.115 80.5074 118.218 80.8112L112.955 81.3637L115.264 83.8325C118.96 87.7829 122.355 89.0542 128.735 88.8792C135.732 88.6865 138.159 89.998 142.835 96.4989L146.108 101.049L153.013 100.435L159.918 99.8201L165.623 106.94C171.187 113.884 171.273 114.081 169.07 114.906C163.542 116.977 146.286 116.86 131.157 114.649C110.327 111.606 101.075 112.04 92.0373 116.485C87.6326 118.652 82.5563 122.398 77.5372 127.185C71.2349 133.197 69.8149 134.16 69.8149 132.423C69.8149 131.253 69.1778 128.773 68.3998 126.913C67.0458 123.679 67.1522 123.144 70.8114 114.719C82.6095 87.5617 92.8222 74.8196 109.617 66.3043C115.572 63.2849 116.708 62.4295 114.128 62.9024C108.076 64.0125 97.1087 69.944 90.0177 75.9414C81.1009 83.4825 74.8035 91.3716 69.4387 101.717L65.1177 110.05L63.6229 107.163C58.0926 96.4871 57.552 81.8563 62.3358 72.3499C63.8326 69.3757 66.5741 65.0939 68.4294 62.8336C71.8434 58.6737 83.4308 50.354 87.0477 49.4652C92.3948 48.1517 109.118 48.8645 116.95 50.7394ZM127.221 177.422C121.035 187.755 122.134 197.025 130.822 207.784L135.784 213.929H133.012C128.147 213.929 120.301 211.052 108.439 204.919C102.09 201.636 96.7513 198.822 96.576 198.665C96.0157 198.164 99.5272 191.936 102.661 187.874C104.33 185.711 109.402 179.454 113.933 173.969L122.17 163.997L126.276 168.07L130.381 172.143L127.221 177.422ZM103.336 205.023C106.547 206.614 111.164 209.281 113.595 210.951C118.689 214.451 129.681 219.812 131.853 219.857C134.324 219.908 130.979 221.434 126.724 222.196C122.581 222.939 118.046 220.989 106.347 213.432C97.8374 207.936 96.3288 207.768 97.3835 212.436C97.8089 214.319 99.1097 217.472 100.274 219.442C103.276 224.522 102.049 224.74 98.442 219.768C94.8271 214.785 93.2161 209.433 94.062 205.213C94.8271 201.395 95.9654 201.371 103.336 205.023Z" fill="white"/>
</svg>
