<?xml version="1.0" encoding="iso-8859-1"?>
<!-- Generator: Adobe Illustrator 18.1.1, SVG Export Plug-In . SVG Version: 6.00 Build 0)  -->
<svg version="1.1" id="Capa_1" xmlns="http://www.w3.org/2000/svg" xmlns:xlink="http://www.w3.org/1999/xlink" x="0px" y="0px"
	 viewBox="0 0 39.428 39.428" style="enable-background:new 0 0 39.428 39.428;" xml:space="preserve">
<path fill="#0288D1" d="M38.783,8.467c-0.578-0.751-1.514-1.199-2.502-1.199c-0.688,0-1.354,0.222-1.881,0.625
		L12.209,24.942l-6.95-6.487c-1.172-1.096-3.325-1.02-4.417,0.152c-0.569,0.61-0.867,1.405-0.84,2.241
		c0.029,0.833,0.382,1.607,0.992,2.176l8.887,8.295c0.582,0.543,1.34,0.842,2.133,0.842c0.693,0,1.352-0.225,1.904-0.648
		L38.21,12.85C39.574,11.802,39.833,9.835,38.783,8.467z M36.99,11.264L12.699,29.927c-0.406,0.312-1.081,0.278-1.455-0.068
		l-8.886-8.295c-0.22-0.205-0.347-0.483-0.356-0.785c-0.011-0.3,0.096-0.587,0.301-0.806c0.216-0.231,0.509-0.358,0.824-0.358
		c0.286,0,0.559,0.108,0.769,0.303l8.188,7.644L35.617,9.481c0.459-0.352,1.232-0.248,1.58,0.205
		C37.574,10.178,37.483,10.886,36.99,11.264z"/>
</svg>
